<?xml version="1.0" encoding="UTF-8" standalone="no"?>
<!DOCTYPE svg PUBLIC "-//W3C//DTD SVG 1.1//EN"
 "http://www.w3.org/Graphics/SVG/1.1/DTD/svg11.dtd">
<!-- Generated by graphviz version 10.0.1 (20240210.2158)
 -->
<!-- Pages: 1 -->
<svg width="566pt" height="260pt"
 viewBox="0.00 0.00 566.00 260.00" xmlns="http://www.w3.org/2000/svg" xmlns:xlink="http://www.w3.org/1999/xlink">
<g id="graph0" class="graph" transform="scale(1 1) rotate(0) translate(4 256)">
<polygon fill="white" stroke="none" points="-4,4 -4,-256 562,-256 562,4 -4,4"/>
<!-- 1 -->
<g id="node1" class="node">
<title>1</title>
<ellipse fill="none" stroke="black" cx="27" cy="-18" rx="27" ry="18"/>
<text text-anchor="middle" x="27" y="-12.95" font-family="Times,serif" font-size="14.00">1</text>
</g>
<!-- 2 -->
<g id="node2" class="node">
<title>2</title>
<ellipse fill="none" stroke="black" cx="171" cy="-18" rx="27" ry="18"/>
<text text-anchor="middle" x="171" y="-12.95" font-family="Times,serif" font-size="14.00">2</text>
</g>
<!-- 1&#45;&gt;2 -->
<g id="edge2" class="edge">
<title>1&#45;&gt;2</title>
<path fill="none" stroke="black" stroke-width="2" d="M54.42,-18C80.05,-18 118.09,-18 143.68,-18"/>
<text text-anchor="middle" x="95.68" y="-21.2" font-family="Times,serif" font-size="14.00">2</text>
</g>
<!-- 5 -->
<g id="node5" class="node">
<title>5</title>
<ellipse fill="none" stroke="black" cx="99" cy="-90" rx="27" ry="18"/>
<text text-anchor="middle" x="99" y="-84.95" font-family="Times,serif" font-size="14.00">5</text>
</g>
<!-- 1&#45;&gt;5 -->
<g id="edge1" class="edge">
<title>1&#45;&gt;5</title>
<path fill="none" stroke="green" stroke-width="2" d="M42.27,-33.27C54.49,-45.49 71.54,-62.54 83.75,-74.75"/>
<text text-anchor="middle" x="59.64" y="-57.21" font-family="Times,serif" font-size="14.00">1</text>
</g>
<!-- 3 -->
<g id="node3" class="node">
<title>3</title>
<ellipse fill="none" stroke="black" cx="315" cy="-18" rx="27" ry="18"/>
<text text-anchor="middle" x="315" y="-12.95" font-family="Times,serif" font-size="14.00">3</text>
</g>
<!-- 2&#45;&gt;3 -->
<g id="edge5" class="edge">
<title>2&#45;&gt;3</title>
<path fill="none" stroke="black" stroke-width="2" d="M198.42,-18C224.05,-18 262.09,-18 287.68,-18"/>
<text text-anchor="middle" x="239.68" y="-21.2" font-family="Times,serif" font-size="14.00">5</text>
</g>
<!-- 2&#45;&gt;5 -->
<g id="edge3" class="edge">
<title>2&#45;&gt;5</title>
<path fill="none" stroke="black" stroke-width="2" d="M155.73,-33.27C143.51,-45.49 126.46,-62.54 114.25,-74.75"/>
<text text-anchor="middle" x="131.61" y="-57.21" font-family="Times,serif" font-size="14.00">3</text>
</g>
<!-- 6 -->
<g id="node6" class="node">
<title>6</title>
<ellipse fill="none" stroke="black" cx="243" cy="-90" rx="27" ry="18"/>
<text text-anchor="middle" x="243" y="-84.95" font-family="Times,serif" font-size="14.00">6</text>
</g>
<!-- 2&#45;&gt;6 -->
<g id="edge4" class="edge">
<title>2&#45;&gt;6</title>
<path fill="none" stroke="black" stroke-width="2" d="M186.27,-33.27C198.49,-45.49 215.54,-62.54 227.75,-74.75"/>
<text text-anchor="middle" x="203.64" y="-57.21" font-family="Times,serif" font-size="14.00">4</text>
</g>
<!-- 4 -->
<g id="node4" class="node">
<title>4</title>
<ellipse fill="none" stroke="black" cx="459" cy="-18" rx="27" ry="18"/>
<text text-anchor="middle" x="459" y="-12.95" font-family="Times,serif" font-size="14.00">4</text>
</g>
<!-- 3&#45;&gt;4 -->
<g id="edge8" class="edge">
<title>3&#45;&gt;4</title>
<path fill="none" stroke="black" stroke-width="2" d="M342.42,-18C368.05,-18 406.09,-18 431.68,-18"/>
<text text-anchor="middle" x="383.68" y="-21.2" font-family="Times,serif" font-size="14.00">8</text>
</g>
<!-- 3&#45;&gt;6 -->
<g id="edge6" class="edge">
<title>3&#45;&gt;6</title>
<path fill="none" stroke="black" stroke-width="2" d="M299.73,-33.27C287.51,-45.49 270.46,-62.54 258.25,-74.75"/>
<text text-anchor="middle" x="275.61" y="-57.21" font-family="Times,serif" font-size="14.00">6</text>
</g>
<!-- 7 -->
<g id="node7" class="node">
<title>7</title>
<ellipse fill="none" stroke="black" cx="387" cy="-90" rx="27" ry="18"/>
<text text-anchor="middle" x="387" y="-84.95" font-family="Times,serif" font-size="14.00">7</text>
</g>
<!-- 3&#45;&gt;7 -->
<g id="edge7" class="edge">
<title>3&#45;&gt;7</title>
<path fill="none" stroke="black" stroke-width="2" d="M330.27,-33.27C342.49,-45.49 359.54,-62.54 371.75,-74.75"/>
<text text-anchor="middle" x="347.64" y="-57.21" font-family="Times,serif" font-size="14.00">7</text>
</g>
<!-- 4&#45;&gt;7 -->
<g id="edge9" class="edge">
<title>4&#45;&gt;7</title>
<path fill="none" stroke="black" stroke-width="2" d="M443.73,-33.27C431.51,-45.49 414.46,-62.54 402.25,-74.75"/>
<text text-anchor="middle" x="419.61" y="-57.21" font-family="Times,serif" font-size="14.00">9</text>
</g>
<!-- 8 -->
<g id="node8" class="node">
<title>8</title>
<ellipse fill="none" stroke="black" cx="531" cy="-90" rx="27" ry="18"/>
<text text-anchor="middle" x="531" y="-84.95" font-family="Times,serif" font-size="14.00">8</text>
</g>
<!-- 4&#45;&gt;8 -->
<g id="edge10" class="edge">
<title>4&#45;&gt;8</title>
<path fill="none" stroke="black" stroke-width="2" d="M474.27,-33.27C486.49,-45.49 503.54,-62.54 515.75,-74.75"/>
<text text-anchor="middle" x="488.26" y="-57.21" font-family="Times,serif" font-size="14.00">10</text>
</g>
<!-- 5&#45;&gt;6 -->
<g id="edge13" class="edge">
<title>5&#45;&gt;6</title>
<path fill="none" stroke="black" stroke-width="2" d="M126.42,-90C152.05,-90 190.09,-90 215.68,-90"/>
<text text-anchor="middle" x="164.3" y="-93.2" font-family="Times,serif" font-size="14.00">13</text>
</g>
<!-- 9 -->
<g id="node9" class="node">
<title>9</title>
<ellipse fill="none" stroke="black" cx="27" cy="-162" rx="27" ry="18"/>
<text text-anchor="middle" x="27" y="-156.95" font-family="Times,serif" font-size="14.00">9</text>
</g>
<!-- 5&#45;&gt;9 -->
<g id="edge11" class="edge">
<title>5&#45;&gt;9</title>
<path fill="none" stroke="black" stroke-width="2" d="M83.73,-105.27C71.51,-117.49 54.46,-134.54 42.25,-146.75"/>
<text text-anchor="middle" x="56.24" y="-129.21" font-family="Times,serif" font-size="14.00">11</text>
</g>
<!-- 10 -->
<g id="node10" class="node">
<title>10</title>
<ellipse fill="none" stroke="black" cx="171" cy="-162" rx="27" ry="18"/>
<text text-anchor="middle" x="171" y="-156.95" font-family="Times,serif" font-size="14.00">10</text>
</g>
<!-- 5&#45;&gt;10 -->
<g id="edge12" class="edge">
<title>5&#45;&gt;10</title>
<path fill="none" stroke="green" stroke-width="2" stroke-dasharray="5,2" d="M114.27,-105.27C126.49,-117.49 143.54,-134.54 155.75,-146.75"/>
<text text-anchor="middle" x="128.26" y="-129.21" font-family="Times,serif" font-size="14.00">12</text>
</g>
<!-- 6&#45;&gt;7 -->
<g id="edge16" class="edge">
<title>6&#45;&gt;7</title>
<path fill="none" stroke="black" stroke-width="2" d="M270.42,-90C296.05,-90 334.09,-90 359.68,-90"/>
<text text-anchor="middle" x="308.3" y="-93.2" font-family="Times,serif" font-size="14.00">16</text>
</g>
<!-- 6&#45;&gt;10 -->
<g id="edge14" class="edge">
<title>6&#45;&gt;10</title>
<path fill="none" stroke="black" stroke-width="2" d="M227.73,-105.27C215.51,-117.49 198.46,-134.54 186.25,-146.75"/>
<text text-anchor="middle" x="200.24" y="-129.21" font-family="Times,serif" font-size="14.00">14</text>
</g>
<!-- 11 -->
<g id="node11" class="node">
<title>11</title>
<ellipse fill="none" stroke="black" cx="315" cy="-162" rx="27" ry="18"/>
<text text-anchor="middle" x="315" y="-156.95" font-family="Times,serif" font-size="14.00">11</text>
</g>
<!-- 6&#45;&gt;11 -->
<g id="edge15" class="edge">
<title>6&#45;&gt;11</title>
<path fill="none" stroke="black" stroke-width="2" d="M258.27,-105.27C270.49,-117.49 287.54,-134.54 299.75,-146.75"/>
<text text-anchor="middle" x="272.26" y="-129.21" font-family="Times,serif" font-size="14.00">15</text>
</g>
<!-- 7&#45;&gt;8 -->
<g id="edge19" class="edge">
<title>7&#45;&gt;8</title>
<path fill="none" stroke="black" stroke-width="2" d="M414.42,-90C440.05,-90 478.09,-90 503.68,-90"/>
<text text-anchor="middle" x="452.3" y="-93.2" font-family="Times,serif" font-size="14.00">19</text>
</g>
<!-- 7&#45;&gt;11 -->
<g id="edge17" class="edge">
<title>7&#45;&gt;11</title>
<path fill="none" stroke="black" stroke-width="2" d="M371.73,-105.27C359.51,-117.49 342.46,-134.54 330.25,-146.75"/>
<text text-anchor="middle" x="344.24" y="-129.21" font-family="Times,serif" font-size="14.00">17</text>
</g>
<!-- 12 -->
<g id="node12" class="node">
<title>12</title>
<ellipse fill="none" stroke="black" cx="459" cy="-162" rx="27" ry="18"/>
<text text-anchor="middle" x="459" y="-156.95" font-family="Times,serif" font-size="14.00">12</text>
</g>
<!-- 7&#45;&gt;12 -->
<g id="edge18" class="edge">
<title>7&#45;&gt;12</title>
<path fill="none" stroke="black" stroke-width="2" d="M402.27,-105.27C414.49,-117.49 431.54,-134.54 443.75,-146.75"/>
<text text-anchor="middle" x="416.26" y="-129.21" font-family="Times,serif" font-size="14.00">18</text>
</g>
<!-- 8&#45;&gt;12 -->
<g id="edge20" class="edge">
<title>8&#45;&gt;12</title>
<path fill="none" stroke="black" stroke-width="2" d="M515.73,-105.27C503.51,-117.49 486.46,-134.54 474.25,-146.75"/>
<text text-anchor="middle" x="488.24" y="-129.21" font-family="Times,serif" font-size="14.00">20</text>
</g>
<!-- 9&#45;&gt;10 -->
<g id="edge22" class="edge">
<title>9&#45;&gt;10</title>
<path fill="none" stroke="black" stroke-width="2" d="M54.42,-162C80.05,-162 118.09,-162 143.68,-162"/>
<text text-anchor="middle" x="92.3" y="-165.2" font-family="Times,serif" font-size="14.00">22</text>
</g>
<!-- 13 -->
<g id="node13" class="node">
<title>13</title>
<ellipse fill="none" stroke="black" cx="99" cy="-234" rx="27" ry="18"/>
<text text-anchor="middle" x="99" y="-228.95" font-family="Times,serif" font-size="14.00">13</text>
</g>
<!-- 9&#45;&gt;13 -->
<g id="edge21" class="edge">
<title>9&#45;&gt;13</title>
<path fill="none" stroke="black" stroke-width="2" d="M42.27,-177.27C54.49,-189.49 71.54,-206.54 83.75,-218.75"/>
<text text-anchor="middle" x="56.26" y="-201.21" font-family="Times,serif" font-size="14.00">21</text>
</g>
<!-- 10&#45;&gt;11 -->
<g id="edge25" class="edge">
<title>10&#45;&gt;11</title>
<path fill="none" stroke="black" stroke-width="2" d="M198.42,-162C224.05,-162 262.09,-162 287.68,-162"/>
<text text-anchor="middle" x="236.3" y="-165.2" font-family="Times,serif" font-size="14.00">25</text>
</g>
<!-- 10&#45;&gt;13 -->
<g id="edge23" class="edge">
<title>10&#45;&gt;13</title>
<path fill="none" stroke="black" stroke-width="2" d="M155.73,-177.27C143.51,-189.49 126.46,-206.54 114.25,-218.75"/>
<text text-anchor="middle" x="128.24" y="-201.21" font-family="Times,serif" font-size="14.00">23</text>
</g>
<!-- 14 -->
<g id="node14" class="node">
<title>14</title>
<ellipse fill="none" stroke="black" cx="243" cy="-234" rx="27" ry="18"/>
<text text-anchor="middle" x="243" y="-228.95" font-family="Times,serif" font-size="14.00">14</text>
</g>
<!-- 10&#45;&gt;14 -->
<g id="edge24" class="edge">
<title>10&#45;&gt;14</title>
<path fill="none" stroke="green" stroke-width="2" d="M186.27,-177.27C198.49,-189.49 215.54,-206.54 227.75,-218.75"/>
<text text-anchor="middle" x="200.26" y="-201.21" font-family="Times,serif" font-size="14.00">24</text>
</g>
<!-- 11&#45;&gt;12 -->
<g id="edge28" class="edge">
<title>11&#45;&gt;12</title>
<path fill="none" stroke="black" stroke-width="2" d="M342.42,-162C368.05,-162 406.09,-162 431.68,-162"/>
<text text-anchor="middle" x="380.3" y="-165.2" font-family="Times,serif" font-size="14.00">28</text>
</g>
<!-- 11&#45;&gt;14 -->
<g id="edge26" class="edge">
<title>11&#45;&gt;14</title>
<path fill="none" stroke="black" stroke-width="2" d="M299.73,-177.27C287.51,-189.49 270.46,-206.54 258.25,-218.75"/>
<text text-anchor="middle" x="272.24" y="-201.21" font-family="Times,serif" font-size="14.00">26</text>
</g>
<!-- 15 -->
<g id="node15" class="node">
<title>15</title>
<ellipse fill="none" stroke="black" cx="387" cy="-234" rx="27" ry="18"/>
<text text-anchor="middle" x="387" y="-228.95" font-family="Times,serif" font-size="14.00">15</text>
</g>
<!-- 11&#45;&gt;15 -->
<g id="edge27" class="edge">
<title>11&#45;&gt;15</title>
<path fill="none" stroke="black" stroke-width="2" d="M330.27,-177.27C342.49,-189.49 359.54,-206.54 371.75,-218.75"/>
<text text-anchor="middle" x="344.26" y="-201.21" font-family="Times,serif" font-size="14.00">27</text>
</g>
<!-- 12&#45;&gt;15 -->
<g id="edge29" class="edge">
<title>12&#45;&gt;15</title>
<path fill="none" stroke="black" stroke-width="2" d="M443.73,-177.27C431.51,-189.49 414.46,-206.54 402.25,-218.75"/>
<text text-anchor="middle" x="416.24" y="-201.21" font-family="Times,serif" font-size="14.00">29</text>
</g>
<!-- 16 -->
<g id="node16" class="node">
<title>16</title>
<ellipse fill="none" stroke="black" cx="531" cy="-234" rx="27" ry="18"/>
<text text-anchor="middle" x="531" y="-228.95" font-family="Times,serif" font-size="14.00">16</text>
</g>
<!-- 12&#45;&gt;16 -->
<g id="edge30" class="edge">
<title>12&#45;&gt;16</title>
<path fill="none" stroke="black" stroke-width="2" d="M474.27,-177.27C486.49,-189.49 503.54,-206.54 515.75,-218.75"/>
<text text-anchor="middle" x="488.26" y="-201.21" font-family="Times,serif" font-size="14.00">30</text>
</g>
<!-- 13&#45;&gt;14 -->
<g id="edge31" class="edge">
<title>13&#45;&gt;14</title>
<path fill="none" stroke="black" stroke-width="2" d="M126.42,-234C152.05,-234 190.09,-234 215.68,-234"/>
<text text-anchor="middle" x="164.3" y="-237.2" font-family="Times,serif" font-size="14.00">31</text>
</g>
<!-- 14&#45;&gt;15 -->
<g id="edge32" class="edge">
<title>14&#45;&gt;15</title>
<path fill="none" stroke="black" stroke-width="2" d="M270.42,-234C296.05,-234 334.09,-234 359.68,-234"/>
<text text-anchor="middle" x="308.3" y="-237.2" font-family="Times,serif" font-size="14.00">32</text>
</g>
<!-- 15&#45;&gt;16 -->
<g id="edge33" class="edge">
<title>15&#45;&gt;16</title>
<path fill="none" stroke="black" stroke-width="2" d="M414.42,-234C440.05,-234 478.09,-234 503.68,-234"/>
<text text-anchor="middle" x="452.3" y="-237.2" font-family="Times,serif" font-size="14.00">33</text>
</g>
<!-- X -->
<g id="node17" class="node">
<title>X</title>
</g>
<!-- Y -->
<g id="node18" class="node">
<title>Y</title>
</g>
<!-- O -->
<g id="node19" class="node">
<title>O</title>
</g>
<!-- O&#45;&gt;X -->
<g id="edge34" class="edge">
<title>O&#45;&gt;X</title>
<path fill="none" stroke="blue" d="M27.21,-18C30.32,-18 67.93,-18 87.43,-18"/>
<polygon fill="blue" stroke="blue" points="87.29,-21.5 97.29,-18 87.29,-14.5 87.29,-21.5"/>
<text text-anchor="middle" x="60.69" y="-21.2" font-family="Times,serif" font-size="14.00">x</text>
</g>
<!-- O&#45;&gt;Y -->
<g id="edge35" class="edge">
<title>O&#45;&gt;Y</title>
<path fill="none" stroke="blue" d="M27,-18.46C27,-22.93 27,-58.97 27,-78.13"/>
<polygon fill="blue" stroke="blue" points="23.5,-78.07 27,-88.07 30.5,-78.07 23.5,-78.07"/>
<text text-anchor="middle" x="23.62" y="-51.49" font-family="Times,serif" font-size="14.00">y</text>
</g>
</g>
</svg>
